<svg width="188" height="54" viewBox="0 0 188 54" fill="none" xmlns="http://www.w3.org/2000/svg">
<g clip-path="url(#clip0_5717_1814)">
<path fill-rule="evenodd" clip-rule="evenodd" d="M90.3972 37.9558C86.2169 37.9558 84.4379 36.0471 84.4379 32.136V21.7722H81.1462V16.5903H84.4379V10.2263L91.7324 9.31637V16.5903H96.7144V21.7722H91.7324V30.2273C91.7324 31.227 92.2659 31.8639 93.2451 31.8639C94.2234 31.8639 95.2914 31.5918 97.0704 30.7725V36.5006C94.8447 37.5013 92.7984 37.9558 90.3972 37.9558ZM109.166 26.0451H105.521C105.521 21.7722 105.964 20.5902 107.3 20.5902C108.633 20.5902 109.166 21.6815 109.166 26.0451ZM116.372 35.9564L114.859 31.0476C112.457 32.2287 110.678 32.5925 109.165 32.5925C107.119 32.5925 105.786 32.0473 105.52 28.9555H116.104V26.4099C116.104 19.8635 112.814 16.1358 107.3 16.1358C102.051 16.1358 98.5812 19.8626 98.5812 26.4099V27.592C98.5812 34.1394 101.963 37.8651 107.923 37.8651C111.301 37.8651 113.258 37.4116 116.372 35.9564ZM129.892 37.592V23.8633C129.892 22.4082 129.448 21.6815 128.292 21.6815C127.668 21.6815 127.135 21.863 126.513 22.2277V37.593H119.04V17.1355L126.513 16.2265V20.4087H126.69C128.915 17.4086 130.605 16.2265 132.918 16.2265C135.764 16.2265 137.366 18.0446 137.366 21.9546V37.593H129.892V37.592ZM151.24 27.0458C151.24 31.4114 150.529 32.8646 149.373 32.8646C148.217 32.8646 147.504 31.4114 147.504 27.0458C147.504 22.6813 148.216 21.227 149.373 21.227C150.53 21.227 151.24 22.6813 151.24 27.0458ZM158.714 36.9561V8.22498L151.241 9.22566V19.8626H151.063C149.728 17.59 148.395 16.2256 145.993 16.2256C142.347 16.2256 140.211 19.8626 140.211 26.4089V27.6827C140.211 34.2281 142.168 37.8641 145.993 37.8641C148.128 37.8641 149.551 36.5006 151.063 34.2272H151.241V37.9548L158.714 36.9561ZM172.235 27.6827C172.235 32.1361 171.789 33.3191 170.366 33.3191C169.033 33.3191 168.497 32.1361 168.497 27.6827V26.4089C168.497 21.9537 169.033 20.7716 170.366 20.7716C171.789 20.7716 172.235 21.9537 172.235 26.4089V27.6827ZM179.706 27.6827V26.4089C179.706 19.8626 176.237 16.1349 170.366 16.1349C164.496 16.1349 161.116 19.8616 161.116 26.4089V27.6827C161.116 34.2281 164.496 37.9558 170.366 37.9558C176.237 37.9558 179.706 34.2281 179.706 27.6827ZM40.2284 37.6837C45.8326 37.6837 50.3688 32.8646 50.3688 27.0458C50.3688 21.1363 45.8326 16.408 40.2284 16.408C34.6241 16.408 30.0879 21.1363 30.0879 27.0458C30.0879 32.8646 34.6241 37.6837 40.2284 37.6837Z" fill="#D7DFF2"/>
<path fill-rule="evenodd" clip-rule="evenodd" d="M8.00439 27.0459C8.00439 14.2614 17.9062 3.84387 30.0878 3.84387C42.2703 3.84387 52.1711 14.2614 52.1711 27.0459C52.1711 39.832 42.2679 50.1572 30.0878 50.1572C17.9076 50.1572 8.00439 39.832 8.00439 27.0459ZM30.0878 4.42322C18.2529 4.42322 8.58374 14.5539 8.58374 27.0459C8.58374 39.5364 18.2514 49.5779 30.0878 49.5779C41.9241 49.5779 51.5918 39.5364 51.5918 27.0459C51.5918 14.5539 41.9236 4.42322 30.0878 4.42322Z" fill="#D7DFF2"/>
<path fill-rule="evenodd" clip-rule="evenodd" d="M63.5336 37.6837C69.1379 37.6837 73.6741 32.8646 73.6741 27.0458C73.6741 21.1363 69.1379 16.408 63.5336 16.408C57.9294 16.408 53.4819 21.1363 53.4819 27.0458C53.4819 32.8646 57.9294 37.6837 63.5336 37.6837Z" fill="#D7DFF2"/>
<path d="M51 27C51 39.1926 41.5566 49 30 49C18.4434 49 9 39.1926 9 27C9 14.8074 18.4434 5 30 5C41.5566 5 51 14.8074 51 27Z" stroke="#D7DFF2" stroke-width="2"/>
</g>
<defs>
<clipPath id="clip0_5717_1814">
<rect width="188" height="54" fill="white"/>
</clipPath>
</defs>
</svg>
