<svg width="157" height="38" viewBox="0 0 157 38" fill="none" xmlns="http://www.w3.org/2000/svg">
<path d="M21.9383 0H22.0028C29.3035 12.6357 36.5948 25.279 43.9173 37.9033C41.1814 37.8929 38.4437 37.9346 35.7078 37.8825C29.794 27.6452 23.8877 17.4004 17.9606 7.17072C17.8828 7.05416 17.971 6.92718 18.0204 6.82105C19.3115 4.5401 20.668 2.29042 21.9383 0Z" fill="#D7DFF2"/>
<path d="M77.5039 0H85.8519C85.851 10.1397 85.8538 20.2803 85.85 30.4199C85.8443 31.6215 86.0189 32.9918 87.0112 33.8067C87.9465 34.5212 89.2035 34.3042 90.2963 34.2464C90.32 34.2654 90.3694 34.3023 90.394 34.3204C90.4206 35.2869 90.412 36.2554 90.3969 37.2229C90.3684 37.2438 90.3096 37.2855 90.2802 37.3063C89.0764 37.6115 87.8232 37.53 86.6089 37.3414C85.1604 37.0855 83.7649 36.2175 83.0999 34.8728C82.1702 33.2647 82.249 31.36 82.1503 29.567C82.1513 20.7247 82.157 11.8833 82.1475 3.0419C80.6012 3.00399 79.054 3.05611 77.5086 3.02768C77.4896 2.01845 77.5086 1.00923 77.5039 0Z" fill="#D7DFF2"/>
<path d="M60.2955 10.2846C62.4651 9.81082 64.7219 9.86104 66.8886 10.3121C68.8324 10.7262 70.6699 11.8094 71.813 13.4554C73.0747 15.308 73.5111 17.5956 73.5196 19.8045C73.5196 24.0698 73.5215 28.3342 73.5167 32.5994C73.5158 33.0704 73.5016 33.5727 73.7321 34.001C74.0935 34.2967 74.5697 34.3819 75.027 34.3658C75.877 34.2654 76.7364 34.3004 77.5921 34.309C77.6111 35.3144 77.6006 36.3208 77.594 37.3272C76.2042 37.3594 74.8126 37.3243 73.4238 37.3385C72.3964 37.3395 71.2049 37.2201 70.5323 36.335C69.6738 34.9808 70.0884 33.3102 70.1908 31.8177C69.541 33.0704 68.8096 34.3128 67.7594 35.2784C66.1999 36.897 64.0057 37.7195 61.8134 38H60.0963C59.991 37.9469 59.881 37.9138 59.7662 37.9024C58.0093 37.747 56.279 37.1282 54.8684 36.063C53.5801 35.1031 52.6561 33.6835 52.2653 32.1275C51.8688 30.6416 51.9655 29.0496 52.3715 27.5789C52.9445 25.5585 54.58 24.0367 56.3777 23.0559C60.527 21.0279 65.2769 20.9085 69.8028 20.9341C69.9499 20.0168 69.8465 19.0758 69.762 18.1585C69.522 16.6281 68.8532 15.0237 67.4815 14.1794C65.8365 13.1114 63.7495 12.9304 61.8513 13.2555C59.6211 13.5075 57.5312 14.4533 55.6975 15.7174C55.0828 14.8437 54.5563 13.9046 53.989 12.9996C55.8217 11.5914 58.0435 10.7395 60.2955 10.2846ZM65.9618 23.7344C63.4868 23.8784 60.9482 24.176 58.6914 25.2695C57.5654 25.8627 56.5266 26.7412 56.0608 27.9532C55.5609 29.2088 55.7335 30.6378 56.223 31.8698C56.8899 33.3538 58.2816 34.4189 59.8544 34.7942C62.6975 35.4888 65.8119 34.2587 67.527 31.9181C68.6483 30.5061 69.3494 28.8042 69.6719 27.0397C69.9906 25.9471 69.8123 24.808 69.8161 23.6946C68.5316 23.7059 67.2434 23.6434 65.9618 23.7344Z" fill="#D7DFF2"/>
<path d="M123.326 12.9872C127.277 10.1822 132.541 9.19763 137.208 10.5726C138.782 11.1033 140.226 12.0614 141.159 13.4544C142.269 15.0303 142.711 16.9625 142.859 18.8559C142.879 23.595 142.852 28.3341 142.871 33.0722C142.809 33.5906 143.086 34.1848 143.632 34.2947C144.727 34.3752 145.851 34.1772 146.935 34.4141C146.956 35.3854 146.948 36.3586 146.939 37.3309C145.516 37.347 144.095 37.3318 142.675 37.3385C141.996 37.3461 141.282 37.3006 140.682 36.9585C140.029 36.6638 139.648 36.0033 139.464 35.338C139.406 34.1649 139.445 32.9879 139.536 31.8176C138.777 33.3726 137.776 34.8225 136.417 35.917C134.933 37.148 133.045 37.746 131.159 37.9999H129.727C128.994 37.8246 128.214 37.8616 127.486 37.6341C126.081 37.2011 124.657 36.6012 123.627 35.5162C121.365 33.4589 120.822 29.9631 121.87 27.1676C122.583 25.2296 124.223 23.7874 126.053 22.9146C130.154 20.9843 134.816 20.9255 139.257 20.9369C139.259 19.0956 139.21 17.1018 138.164 15.5041C137.595 14.5356 136.585 13.9434 135.57 13.5397C133.978 12.973 132.253 13.0592 130.616 13.3416C128.602 13.6818 126.719 14.5669 125.046 15.7164C124.456 14.8171 123.9 13.896 123.326 12.9872ZM135.31 23.7457C133.977 23.8385 132.632 23.9105 131.325 24.21C129.685 24.5142 128.03 25.0638 126.73 26.1441C125.541 27.1562 124.881 28.7984 125.185 30.3516C125.297 31.5513 125.915 32.6771 126.763 33.5195C129.35 35.7863 133.618 35.2992 135.966 32.9074C138.488 30.5989 139.411 27.0131 139.258 23.6954C137.942 23.7115 136.619 23.6272 135.31 23.7457Z" fill="#D7DFF2"/>
<path d="M90.8836 10.6164C94.5804 10.6126 98.2782 10.6088 101.976 10.6183C101.979 11.6265 101.987 12.6348 101.974 13.6431C100.711 13.6545 99.4498 13.6393 98.1891 13.645C100.246 19.0597 102.25 24.4944 104.293 29.9149C104.729 31.1032 105.232 32.2773 105.413 33.5405C105.453 33.5414 105.532 33.5433 105.571 33.5443C105.677 32.2347 106.252 31.0416 106.685 29.8201C108.661 24.5825 110.606 19.3327 112.577 14.0923C112.681 13.917 112.809 13.5938 112.488 13.5938C111.333 13.6848 110.172 13.6469 109.017 13.6336C108.992 13.608 108.942 13.5559 108.917 13.5294C108.889 12.559 108.901 11.5867 108.908 10.6164C112.605 10.6126 116.302 10.6088 120 10.6183C120.002 11.6265 120.012 12.6348 119.998 13.6431C118.866 13.627 117.727 13.7066 116.601 13.5824C116.44 13.6933 116.386 13.8762 116.339 14.0544C113.387 21.8155 110.377 29.5557 107.452 37.3253C106.14 37.3414 104.827 37.3509 103.517 37.3244C100.499 29.4354 97.4614 21.5539 94.4637 13.6573C93.3064 13.6147 92.1481 13.68 90.9946 13.6327C90.9689 13.6071 90.9177 13.5559 90.893 13.5303C90.8655 12.559 90.8769 11.5877 90.8836 10.6164Z" fill="#D7DFF2"/>
<path d="M12.4462 16.5058L12.5145 16.485C12.9034 17.335 13.4565 18.0922 13.8909 18.9185C14.7257 20.4688 15.7218 21.9301 16.5026 23.5098C15.8793 24.9985 14.8728 26.3214 14.1376 27.7694C13.5551 28.7701 12.9262 29.7556 12.4149 30.7914C15.1972 30.8151 17.9805 30.7781 20.7619 30.8075C22.1204 33.1775 23.514 35.5248 24.8563 37.9043C16.6003 37.9033 8.3433 37.9109 0.0872803 37.9005C1.66866 35.0055 3.40373 32.1654 5.03254 29.2837C7.03702 25.822 9.03106 22.3499 11.046 18.892C11.5184 18.0997 11.9168 17.2639 12.4462 16.5058Z" fill="#D7DFF2"/>
<path d="M152.648 33.0003C152.745 32.8373 152.948 32.8923 153.109 32.8781C154.404 32.8828 155.701 32.8837 157 32.8828V37.3367C155.546 37.331 154.093 37.3471 152.641 37.3319C152.633 35.8887 152.621 34.4435 152.648 33.0003Z" fill="#D7DFF2"/>
</svg>
